# xmcd CD database file
#
# Track frame offsets:
#	150
#	67042
#	133025
#	198290
#	264710
#
# Disc length: 4372 seconds
#
# Revision: 0
# Processed by: cddbd v1.5.2PL0 Copyright (c) Steve Scherf et al.
# Submitted via: CDex 1.51
#
DISCID=4a111205
DTITLE=Fabrizio Festa e Marcello Fois - Radiofavole
DYEAR=1998
DGENRE=Jazz
TTITLE0=Quando ci conosceremo
TTITLE1=Prima dell'arcobaleno
TTITLE2=Buio
TTITLE3=In città piovono angeli
TTITLE4=La verità su Leonardo
EXTD=YEAR: 1998
EXTT0=
EXTT1=
EXTT2=
EXTT3=
EXTT4=
PLAYORDER=
